<?xml version="1.0" standalone="no"?>
<!DOCTYPE svg PUBLIC "-//W3C//DTD SVG 20010904//EN"
 "http://www.w3.org/TR/2001/REC-SVG-20010904/DTD/svg10.dtd">
<svg version="1.0" xmlns="http://www.w3.org/2000/svg"
 width="1207.000000pt" height="1217.000000pt" viewBox="0 0 1207.000000 1217.000000"
 preserveAspectRatio="xMidYMid meet">

<g transform="translate(0.000000,1217.000000) scale(0.100000,-0.100000)"
fill="#000000" stroke="none">
<path d="M5670 12114 c-19 -2 -89 -8 -155 -14 -140 -13 -300 -34 -423 -55
-105 -18 -122 -23 -122 -36 0 -9 63 -121 230 -409 40 -69 150 -260 245 -425
95 -165 205 -356 245 -425 91 -158 337 -585 360 -626 10 -16 51 -88 92 -160
235 -405 369 -636 390 -675 14 -24 125 -216 247 -427 121 -211 232 -402 245
-425 12 -23 123 -214 245 -425 121 -211 232 -402 245 -425 38 -69 513 -892
588 -1019 38 -65 74 -118 81 -118 7 0 33 37 58 83 26 45 124 217 219 382 95
165 243 422 328 570 85 149 187 326 227 395 73 126 259 450 540 940 84 146
173 300 198 343 26 43 47 80 47 81 0 2 63 113 141 247 283 490 439 766 439
776 0 17 -290 299 -429 418 -889 758 -2045 1261 -3211 1394 -52 6 -138 16
-190 22 -90 11 -805 21 -880 13z"/>
<path d="M4445 11909 c-385 -103 -719 -231 -1085 -415 -1100 -554 -1990 -1405
-2590 -2479 -143 -255 -380 -790 -380 -856 0 -19 44 -19 3205 -19 3065 0 3205
1 3205 18 0 10 -6 26 -14 37 -15 22 -104 175 -411 710 -334 580 -552 960 -668
1160 -61 105 -205 354 -320 555 -115 201 -231 401 -257 445 -40 67 -222 383
-453 788 -49 84 -52 87 -86 86 -20 0 -85 -14 -146 -30z"/>
<path d="M10588 9958 c-14 -24 -69 -119 -123 -213 -54 -93 -107 -186 -118
-205 -10 -19 -62 -109 -115 -200 -52 -91 -103 -178 -112 -195 -60 -106 -373
-649 -397 -691 -17 -27 -41 -70 -55 -95 -14 -24 -78 -136 -143 -249 -65 -113
-186 -324 -270 -470 -83 -146 -186 -323 -227 -395 -41 -71 -145 -251 -230
-400 -154 -268 -275 -479 -503 -875 -65 -113 -187 -324 -270 -470 -186 -325
-423 -737 -533 -927 -45 -78 -82 -150 -82 -160 0 -17 71 -18 2163 -18 2157 0
2162 0 2197 20 19 12 42 34 52 51 45 77 151 598 187 919 32 286 36 360 36 730
0 409 -7 518 -51 835 -134 959 -518 1917 -1077 2689 -127 175 -278 361 -293
361 -7 0 -23 -19 -36 -42z"/>
<path d="M258 7768 c-3 -13 -20 -77 -37 -143 -52 -198 -88 -374 -134 -660 -21
-135 -22 -165 -22 -820 0 -722 -1 -696 51 -1010 99 -597 281 -1166 539 -1690
149 -303 246 -470 403 -700 161 -236 381 -515 406 -515 10 0 225 362 409 690
10 19 79 139 152 265 73 127 144 250 158 275 14 25 85 149 157 275 73 127 144
250 158 275 14 25 49 86 77 135 119 206 490 853 508 885 10 19 80 141 155 270
74 129 144 251 155 270 55 99 263 460 284 492 12 21 23 39 23 41 0 2 23 44 51
93 61 106 515 896 539 939 9 17 79 138 155 270 76 132 149 260 163 285 13 25
28 49 33 54 5 6 9 18 9 28 0 17 -88 18 -2194 18 l-2194 0 -4 -22z"/>
<path d="M5104 7542 c-71 -123 -252 -436 -600 -1039 -134 -232 -244 -426 -244
-433 0 -6 65 -122 143 -258 79 -136 206 -355 282 -487 76 -132 214 -370 306
-530 l168 -290 916 0 916 0 113 195 c62 107 191 330 286 495 95 165 246 427
336 582 90 155 164 287 164 293 0 10 -110 202 -540 945 -47 83 -149 259 -226
392 l-139 243 -910 0 -910 0 -61 -108z"/>
<path d="M3839 5692 c-14 -26 -131 -231 -261 -457 -129 -225 -305 -531 -390
-680 -85 -148 -280 -488 -433 -755 -487 -850 -624 -1089 -783 -1365 -252 -439
-262 -457 -262 -476 0 -37 224 -263 439 -443 638 -532 1545 -1001 2336 -1206
176 -46 421 -98 575 -124 315 -53 282 -51 1000 -51 585 0 689 2 780 17 58 9
127 20 154 23 59 8 76 14 76 27 0 6 -35 72 -79 147 -66 114 -552 961 -610
1063 -10 18 -88 155 -173 303 -164 285 -330 575 -780 1360 -152 264 -346 603
-432 752 -515 898 -1015 1770 -1039 1813 -65 118 -79 124 -118 52z"/>
<path d="M5273 4023 c5 -25 202 -374 582 -1033 61 -107 123 -215 137 -240 14
-25 86 -151 160 -280 75 -129 146 -253 158 -274 12 -22 75 -132 140 -245 65
-114 127 -222 138 -241 10 -19 170 -298 354 -620 184 -322 347 -607 362 -635
90 -162 103 -175 175 -175 86 0 582 163 881 290 710 301 1267 662 1818 1179
472 443 975 1128 1267 1726 70 144 255 555 255 567 0 4 -1447 8 -3216 8
l-3216 0 5 -27z"/>
</g>
</svg>
